<?xml version="1.0" standalone="no"?>
<!DOCTYPE svg PUBLIC "-//W3C//DTD SVG 20010904//EN"
 "http://www.w3.org/TR/2001/REC-SVG-20010904/DTD/svg10.dtd">
<svg version="1.0" xmlns="http://www.w3.org/2000/svg"
 width="128.000000pt" height="80.000000pt" viewBox="0 0 128.000000 80.000000"
 preserveAspectRatio="xMidYMid meet">

<g transform="translate(0.000000,80.000000) scale(0.100000,-0.100000)"
fill="#000000" stroke="none">
<path d="M627 658 l-49 -91 -63 63 -63 62 -7 -108 c-4 -60 -12 -115 -17 -121
-7 -8 -36 -13 -79 -13 -38 0 -69 -2 -69 -4 0 -2 13 -34 29 -70 l30 -65 -133
-85 c-74 -46 -142 -86 -152 -88 -14 -2 -19 -12 -19 -36 l0 -34 590 2 c324 0
590 2 591 3 2 1 -26 35 -62 74 l-64 71 75 42 c41 23 75 43 75 45 0 2 -43 18
-95 35 -52 17 -95 34 -95 36 0 3 16 36 36 75 19 39 33 73 30 76 -3 3 -46 -2
-95 -11 -130 -23 -121 -27 -121 54 0 39 -2 70 -5 70 -2 0 -39 -20 -81 -45 -43
-25 -80 -42 -84 -38 -4 4 -15 44 -25 88 -9 44 -20 85 -24 92 -3 6 -28 -29 -54
-79z m59 -69 c22 -98 17 -95 82 -58 31 17 68 39 81 48 l24 15 -7 -67 c-8 -78
-10 -77 104 -52 106 23 105 24 70 -45 -16 -33 -30 -64 -30 -69 0 -5 30 -19 68
-31 37 -13 71 -26 75 -30 4 -4 -20 -21 -53 -39 l-62 -33 24 -27 c12 -14 36
-41 52 -58 l30 -33 -333 0 -332 0 21 27 c30 39 50 89 50 128 0 40 -32 69 -92
86 -33 8 -44 7 -65 -6 -13 -9 -26 -15 -27 -13 -6 11 -36 79 -36 83 0 3 29 5
64 5 71 0 76 5 76 69 0 21 3 58 6 83 l6 44 51 -53 50 -54 41 75 c22 41 42 73
44 71 2 -1 10 -32 18 -66z m-201 -281 c49 -22 40 -91 -23 -164 l-27 -32 -168
-5 c-126 -4 -167 -3 -164 6 6 19 309 207 333 207 13 0 35 -5 49 -12z"/>
<path d="M394 269 c-10 -17 13 -36 27 -22 12 12 4 33 -11 33 -5 0 -12 -5 -16
-11z"/>
</g>
</svg>
